<?xml version="1.0" encoding="UTF-8"?>
<svg
        xmlns="http://www.w3.org/2000/svg"
        width="1000"
        height="1000"
>
    <path
            style="stroke:black;stroke-width:5;fill:blue"
            d="
            M 410 170
            C 410 230,
               10 230,
               10 170
            M 410 170
            C 410 110
               10 110,
               10 170
            M 410,170
            L 410,480
            C 410,540
              10, 540
               10,480
            L  10,170
            "
    />

    <rect x="450" y="50" width="300" height="180"
          fill="yellow" stroke="navy" stroke-width="10"
          rx="50"
    />

    <circle cx="600" cy="360" r="100"
            fill="red" stroke="blue" stroke-width="10"  />

    <ellipse cx="300" cy="750"
             rx="250" ry="100"
             fill="none" stroke="blue" stroke-width="20"  />

    <line x1="430" y1="800" x2="430" y2="100"
          stroke-width="15"
          stroke="green" />

    <text x="500" y="150"
          font-family="Verdana" font-size="55" fill="blue" >
        Hello,
    </text>

    <!--polygon fill="red" stroke="blue" stroke-width="10"
             points="
             550,475
             579,561
             669,561
             597,615
             623,701
             550,650
             477,701
             503,615
             431,561
             521,561"
    /-->

    <ellipse transform="translate(300 750) rotate(-330)"
             rx="250" ry="100"
             fill="none" stroke="blue" stroke-width="20"
    />

</svg>
