<?xml version="1.0" encoding="UTF-8"?>
<svg xmlns="http://www.w3.org/2000/svg" width="1000" height="1000"><defs><pattern id="rough-1502324047582811" x="0" y="0" width="1" height="1" viewBox="0 0 100 100" patternUnits="objectBoundingBox"><path d="M1.6672455726287412 0.12231571629486637 C0.9101682458481608 0.3283740483585328, 0.46969031899227665 0.9090288928709214, -0.06374994913986598 1.500975597936489 M1.489126529391152 0.012954689858907215 C1.018494007711248 0.5593661185275618, 0.5347066142288253 1.0396832755734864, 0.050004302449911525 1.830909187713716 M6.874802162131969 -0.849418673189011 C4.985304889044524 1.1757438053861033, 2.937726243480169 3.7854598284807954, 0.9839530494395987 7.757917789855147 M6.526543898237615 -0.14289970401550395 C5.5023579394291335 1.3279178867426618, 3.1348677318319287 3.4012075840889193, -0.33571364328081854 7.798063010620574 M13.590253727786394 1.5924108593800943 C10.76430341066517 3.78508475089649, 5.963186166040641 8.296535471109554, 1.3892007415547019 15.359211138827519 M11.946574360786231 0.5860760744560853 C8.943589450568128 5.032785964573994, 4.699963338049595 9.501615736409903, 0.02282505421520009 13.69729492690808 M16.541653078770608 1.710346014358346 C13.429348782922418 2.8011248843876473, 8.510575508086923 8.820922271554075, -1.8694485075975313 18.806438218040856 M16.587573932018948 0.7260389530107756 C11.654440790140178 7.547644541600238, 3.882480529834705 14.798038708207006, -0.7694948888359496 21.008683364358994 M23.221752359740595 1.355627650087249 C17.555789258228415 6.647070931804271, 10.61158602220018 16.183241174518937, -1.2891943127079504 25.8866145793334 M23.63816016340931 0.7700831921688014 C14.234625624344348 8.535555833636284, 7.6049914325546055 18.54530940306879, -0.07727512142460347 25.642754092535387 M29.303029710388362 0.14450577024863254 C20.45833981753597 6.291563178740021, 14.785703506842495 15.971099343157373, 1.3046142976839006 32.68907291798908 M28.103458118595157 0.7980890652624506 C21.62788961829242 6.450203943276543, 15.532622646370465 15.568750904449672, -0.7124080520756326 33.050891109287164 M31.580586527859154 0.2592616510763106 C20.044355072418053 14.989661619086391, 11.967060020215783 25.202183753016847, 0.977745740526994 38.346129052346605 M34.005240484944395 0.5742741751527602 C24.042896701433694 9.75957827889199, 16.47187992323656 20.977590612996448, 0.7300680642992528 38.56259992468689 M37.563154757377205 -0.010252549182770743 C25.29103786029192 14.101264923822061, 11.036820464358279 29.954152913783645, 0.9902912314808701 45.98036977008233 M38.10392968090809 -0.5327195307194517 C27.626514482335892 10.407586470350296, 18.73539532064061 22.58521551497871, -0.10407712387378254 45.241370127292136 M44.04370393830143 0.2881207719712826 C33.20032231849745 12.720432708457595, 19.401196741229683 28.766508426767423, -1.889791210296302 50.15440326460737 M43.72475783887488 -0.358283107693687 C31.56713594076358 15.680603253790801, 19.13878609434712 29.59073831899814, 0.7741639206301274 49.84451093164944 M47.70841901711277 -1.4868139943263694 C36.35045675571576 12.186431282433135, 28.245150684185763 24.684020637438753, -0.7562701968173773 58.32081461684679 M49.93808111396027 -0.9132294625141428 C33.021956301131866 18.459173530412766, 16.538126361537547 39.30284351645891, -0.17547065548492702 56.94764751187953 M55.442132132964 -1.5190417510834608 C32.888018760306046 24.041119340779773, 12.101060945027495 48.02116929284102, -0.37583779741631496 63.766462431907904 M53.76941012456651 -0.9127217829315613 C38.43164028130005 19.004037840506726, 21.972989750021686 37.07978039128909, 0.4522227416590616 62.17487982911149 M61.27604864922338 -1.4256500872693358 C38.56476334719408 24.401235852790627, 13.926081890721093 50.33919045030196, 0.4261199449259374 69.9854427042178 M59.01056050288481 0.14797535636060966 C48.66675342491934 13.08667423836972, 37.21239863517271 27.59395213901052, 0.9501878709908271 69.25927072099898 M66.45580384420221 0.8682608776449214 C48.0005663177628 19.64310494782532, 30.683866955831387 38.31612341228037, 0.7578204813943952 73.37610483778127 M65.49819260150441 -0.7722795532321953 C44.23658791745699 22.759629589336186, 23.56165794466375 47.14204326603202, -0.9775101001542823 75.22649262096672 M69.54786838788192 -0.9878259335851416 C42.20934508428177 33.067765914809904, 16.3685316778889 64.67078256307467, 1.9179209580738714 82.69283629367744 M70.74705737085337 0.8680480114729265 C52.13285896775066 21.423977104408117, 32.92924133831678 43.93743894221024, 0.23785100820139382 81.80528207744582 M74.71919255858755 -1.2563324906786386 C56.555202437547635 20.618489940188024, 37.02043267289441 45.88479038501822, 1.5771266197730478 88.92628436392883 M75.25081165399699 -0.9024487366818783 C58.40193574751402 20.389076100473083, 41.56761989898728 40.64366306642307, 0.6677000548544569 86.26655233329186 M81.96069238911707 -0.7687813446507414 C49.400386340422024 34.974374667906524, 20.057932736736785 69.5467523956954, -1.1579210796803965 92.03271914584168 M80.85282214240739 0.6432385397813305 C62.29983236423263 22.95484294530168, 42.984236406175945 45.2859551129644, 0.6295482944561743 93.54817356918237 M85.47110218123228 1.8689102257860855 C56.34662310131404 35.25551845942275, 23.721896078326537 72.03691335563032, 0.466484709303173 100.67053583764692 M86.15164615681506 0.7134038289875937 C58.55593683689843 31.651355528363155, 29.643344659206385 65.17591550434133, 0.4470529479213714 98.6645388635674 M92.32342652894137 -0.18587750585806262 C60.92465900482064 35.31667242006398, 26.575354416922487 72.17014180625821, 4.302216880536441 99.84903692519003 M92.17790983320873 0.8187502238775202 C68.24922671843707 26.69998526282768, 45.79513460064753 52.518443681373014, 5.54232120437981 100.94561710421144 M96.41668255874973 -1.6185832589559253 C73.08617367948348 27.218533375262922, 51.48832385044472 51.00256808228697, 10.931687182111034 99.70239934131564 M96.06715258175869 0.7694873165052218 C73.33004278099374 28.211270685194798, 48.926680987586515 56.97995786221514, 10.700905591133008 99.00429078687624 M98.26352271930149 4.315809559573249 C67.2924789246484 40.25291323816738, 33.43043761303281 79.39692604565865, 16.873022215705312 100.58813691825475 M100.63379645871917 2.9624547533287258 C66.35788494659647 41.31934591547752, 33.25647910843978 79.09232723538082, 15.043211177658062 99.61365727083296 M99.74029440931494 6.927624859494128 C78.91685397380853 32.002380955775884, 57.51593013377654 54.24835236970649, 19.17869181882076 99.44660746608497 M99.05347932717416 8.089652398635911 C76.38708096383344 32.842701577843506, 55.326961479743574 59.40258504348434, 20.988570712067286 100.75766589011715 M100.53032937454334 16.23841208118302 C80.33175373326715 34.611394007702415, 66.26241431846059 53.709931872198, 27.590992073978775 98.47439568073014 M100.88601305802884 14.711181740482278 C71.96058182646941 44.43282373397398, 45.97933923921803 75.84077610885926, 25.476034418134496 99.01548805375359 M100.37590473824707 21.821287309290682 C86.68817022793039 36.42764039330931, 71.95781410114789 52.83412111049724, 32.85939468115443 101.21106281821183 M99.41640459323767 21.69237016537874 C79.56852695484021 44.701298956319334, 58.37960656624557 68.85865405637499, 30.402649206018673 100.63841956745573 M99.74401738734244 27.261801863276098 C88.99608305724894 41.78603821972823, 76.21402448850598 55.35162863719741, 37.02040653989524 101.26169171163076 M100.73072005136895 26.973311946121026 C83.63533100818289 46.657768147074265, 66.39074397531623 66.56787981131438, 36.00661210487843 100.33530949688195 M98.53629467488592 32.546825649569136 C85.9590198471023 45.97349263288845, 75.58789640121435 60.69467688062474, 40.31855867258565 98.51698296460702 M100.43712542594277 32.15911060094558 C83.0630639507346 53.493067404780774, 64.6014725113116 73.2174615088912, 41.6298074002086 100.53583978050135 M98.56255773791237 37.33304118453658 C79.49687072253586 61.55404262710451, 57.568581925718064 88.24426959251933, 46.74709837942965 99.57303609432753 M99.58195982678231 39.5416025155263 C85.17345006639076 56.390438411049935, 69.79404355657609 75.15908490511599, 47.91717220811375 100.1637009219341 M100.86503894523 45.921206795737945 C88.65750222201355 59.49102264803605, 71.42537407572718 74.57223048149723, 51.38565536765043 99.02300990912502 M99.15212110626484 45.67545561791428 C85.39721230459365 61.56408641649622, 71.66007558036375 77.12238809190148, 51.79804132419324 100.80566832256649 M100.17310096952835 50.06579027477628 C84.80609091100902 67.33502008933402, 70.6360947637277 84.35372132825741, 59.190922050801305 100.53867848107947 M100.44438627719462 51.01098778136767 C90.55709420375474 61.80159449088324, 81.49872047514548 72.81090960178352, 56.99204271446939 100.15447324541805 M100.95172260500877 56.8429805801008 C88.52118759853487 69.51148027933458, 81.32164878269023 79.0272258189603, 63.57629734346727 101.6689051163093 M99.84383698587231 57.87169860814256 C90.73602027892508 68.27780160799794, 79.94899182810421 80.28934517119768, 63.75700241684313 100.90214357992586 M98.49967806054802 65.27430214837538 C93.27768113883458 70.15445178932293, 83.56580901585434 79.19158697437723, 69.74146848696915 99.65347612272194 M100.13872534081261 62.82721162600039 C88.50532280646136 76.00892877061747, 77.63145493212654 89.02012606989746, 67.83135347785813 99.6287182027382 M98.25414686770822 68.44272139611392 C93.90197512542039 78.05404422170392, 87.73469251419193 86.4160047409835, 74.62136601578221 101.86178066514664 M100.49326641211199 69.45508795208377 C93.132259652035 76.83130948105675, 86.33350049523644 85.20623125839502, 73.29802228131274 100.17847947699335 M98.80479829620039 74.494314297133 C91.59466162171853 84.69748950644816, 83.44822189591426 93.01013061536246, 78.04245427633874 98.22723338721637 M99.31791513756737 75.86587683310023 C95.22172062100589 82.05091240818805, 89.3286851685852 88.33880845636085, 79.1436323794301 99.24708269561434 M99.03970497505622 83.48683348608189 C94.62931615882327 84.806723487639, 90.75371239633209 90.49947493957606, 84.62069561506607 99.71467836302494 M99.8438431617721 82.75543699307568 C93.98824815043449 88.648727851354, 89.35536792586782 93.40524769154327, 84.12577020699247 100.61646684608331 M99.4516779441283 87.6835344037932 C96.19534622523388 90.95399433982661, 95.32275416576132 95.03315111446116, 89.25548682462524 100.87238744024188 M100.5235318709587 87.64791395322196 C96.65489020339137 92.92557848200839, 92.03637430652789 95.73870043131497, 89.5253840274997 100.47663070461155 M99.54300672121605 93.86740451621941 C97.76153431367548 96.43509026706356, 96.13913677503847 97.6488059761785, 95.01222714629486 100.23836158123429 M100.18146803032283 93.8494563491207 C98.91961067994431 95.029180405053, 97.63428212245914 96.94841572642375, 94.56979864871661 100.36294900893171" style="stroke: blue; stroke-width: 0.5; fill: none;"></path></pattern></defs><g><path d="
            M 410 170
            C 410 230,
               10 230,
               10 170
            M 410 170
            C 410 110
               10 110,
               10 170
            M 410,170
            L 410,480
            C 410,540
              10, 540
               10,480
            L  10,170
            " style="stroke: none; stroke-width: 0; fill: url(#rough-1502324047582811);"></path><path d="M411.6237210905592 168.30032783058135 M411.6237210905592 168.30032783058135 C411.87125145804026 229.95335392462366, 8.9024964998837 231.81769334857677, 10.703636882250517 169.71074000679576 M411.19603635412307 168.58062207320287 C410.7318269541924 231.04412244042553, 10.631801217042014 229.96912625419176, 10.768319688435891 170.83072472545427 M410.3006793625375 169.84409457843427 M410.3006793625375 169.84409457843427 C411.5533315490187 109.99868300412217, 9.376020088378972 110.72537227942513, 9.297431912011358 170.25369878694528 M410.3497787753299 170.10992619085314 C409.7761768879145 107.88854138236664, 11.76943972155758 109.07083359333576, 9.028891179153291 168.20663100404406 M409.08892109708853 168.57547966300166 M407.13625068749263 170.16749285524892 C406.40190738868546 273.5654101893603, 408.96708659241114 382.24159711886404, 411.8205489783864 480.7407640399279 M409.8255217016453 169.273773362604 C407.82860500899454 286.66775916691574, 407.03266958979924 405.457460427213, 409.90154792240054 480.6209653051185 M410 480 C409.9464786931166 539.7182414273506, 9.581019617219056 538.3346732363996, 9.67678167231264 480.4835858276142 M410.70382972512533 481.1412855660369 C411.57266701096546 541.3808910791901, 9.93789465706179 539.8731608934501, 9.526795308474746 481.98618426689745 M8.653666140534444 482.1700554333489 C9.245794906606651 374.3033306287395, 9.00794785693309 264.6470871685036, 9.709480151898386 169.86269470264403 M8.692849559041289 481.2016641487242 C7.013444935276905 386.7722236490568, 7.076826585263852 291.11220574675275, 9.137038674096509 169.93919884355637" style="stroke: black; stroke-width: 1; fill: none;"></path></g><g><path d="M453.2711865088703 49.98877347614332 C453.2770888212248 50.645595868266255, 451.3968681419705 52.963964265485885, 450.1480878520188 54.00580260063105 M454.0634417244969 50.252510541836216 C452.6313970128979 51.17786900424768, 451.92828528268365 52.72384772088312, 450.0351765014065 54.587853076232065 M459.3747800754112 48.92086493440939 C456.69356097566475 52.84983328819717, 454.1330329722083 54.27211400619568, 449.27880289126375 60.99923930912633 M458.86384182242654 49.47775232689405 C456.68987494549276 53.16645109026144, 454.0786410626892 56.79945001223297, 449.830980970773 60.349008966085414 M465.55729638969444 49.8131864671559 C459.2071679271845 55.821969024275475, 456.20473928349577 56.55693146946563, 451.6782120960468 65.52877027361889 M465.2237681848968 49.80657824935727 C457.8864239203802 57.67637460276627, 453.9399818140635 62.37300833180431, 449.71622741774286 67.29931152366808 M471.52317304487644 49.176568034007545 C465.56750389344853 54.88175677051734, 458.5052760606969 61.638766350330286, 450.5767790859799 70.91383374833975 M470.15904357029495 50.86978987493015 C462.2012418065927 57.27633872301728, 456.4367600402836 66.61386813681503, 450.6779810933297 73.54064566760815 M473.94862484317963 49.81265918204976 C465.3014731322625 59.40579788548301, 456.0576149088596 72.23957737458295, 449.7680722986636 77.6286201589416 M475.5973534026718 50.50135696573058 C469.27769359273515 56.80614794274148, 463.7128937872566 62.62265897472087, 449.75818606580486 79.76098959956211 M480.2071659242113 49.959166006059384 C473.05434255151243 60.609572492645555, 465.6126494987472 66.2402278256997, 451.6803771544581 86.39503063360131 M479.62449528423747 49.123111175494145 C470.4032793422361 60.596544712592575, 461.3347981983391 70.9016982051488, 450.2598870171445 85.39987095868318 M486.9614989731275 48.36057398586366 C472.38300011568157 64.56344752271302, 458.5293220247065 82.82037755434456, 449.16609619627525 89.22508626470209 M486.46245346805534 50.06280570488057 C474.5371889008109 63.3381149564215, 460.7942567951568 78.0612339791037, 449.69185719965674 90.47765090046192 M491.04448874418154 50.89209323769226 C479.37378434056365 63.87758493006528, 465.20697785636804 78.37096180940678, 450.8694075206597 96.79611457070456 M490.2273197870217 50.997192543115226 C482.61240380881827 60.24153731800306, 474.3851453562571 70.08851694817413, 450.8187654560187 97.0287999793613 M494.3596708965547 48.7595189080627 C483.9002507746821 61.01659568995338, 475.95762426853446 71.87545643031444, 451.27351157506047 105.17490517200764 M495.27720696358676 50.5432411193917 C479.6205409275569 68.52781791192866, 463.8069532311359 86.53722159866162, 450.29160926054135 103.43135422266822 M503.46642980837163 50.996578155636946 C485.85323522239077 70.0947149733678, 466.6597545794589 89.8098753151087, 451.79753046202285 110.78853972293676 M502.43509639350964 50.676569306829606 C483.242227577469 70.9292184553959, 463.3090471830809 93.16588933522712, 449.52783436715646 108.32323360134049 M508.6469139615351 48.77530452595282 C484.9339641073245 74.1163010900877, 462.0781277292307 100.11653719854662, 450.905020859075 115.16468011386941 M507.4991809049446 50.52108600820677 C492.5535168902744 65.43985172498351, 480.3159604972815 80.70407620240407, 450.86876913002897 115.42050458612154 M510.5649641125764 51.96434479820715 C496.1915348033898 65.84552299415294, 482.0455180431808 85.81250628983085, 448.4048144706067 121.47496995853074 M512.0524863954031 49.087848460196554 C497.10776021209085 66.49526652680987, 482.689580167723 84.88002221369844, 449.2052452677175 120.6749067904426 M515.881216463797 49.66546999934196 C494.9583643708411 76.59207930468756, 468.13182328809194 107.11002168404114, 450.88100468865457 128.5121359005945 M517.7076211607148 49.81570620620698 C498.3562693218713 72.48489764269647, 478.7209238542344 95.97628469757522, 449.5185888696057 126.94165911288539 M523.4686258328697 50.21709280145197 C505.15445363700803 69.74118999401907, 485.079097164502 93.6472162383276, 449.92515059051533 133.92727232597545 M522.3377398786612 49.41263319219468 C504.37331688309575 68.37445155816013, 488.63003659068545 87.1071293286719, 449.310108522404 133.5061620312783 M527.4151942510139 49.19525650511582 C509.38381894434303 68.3456054193266, 494.01803258525126 84.22493771822981, 449.58157056689845 140.58691842081808 M527.8656113572335 50.19595514603339 C506.4885238825834 76.14759430026052, 481.88165995937584 104.0337114223098, 450.07480222486834 140.73889543955266 M532.6383484045307 49.714340270914605 C508.1357969868428 79.32220697663465, 485.12999200965385 106.2489921647609, 448.81077489619724 144.5029831277901 M533.1017586214286 50.406791355718305 C508.98017368901486 78.47180718680944, 482.54133125154243 108.54459373589948, 449.6836279422173 145.21208320066557 M539.3115718554534 49.27498096936298 C505.22929852854486 85.33239161628408, 474.70738437543207 125.37018184182341, 449.25422252443093 153.34630891765528 M537.9556136444118 49.886419558010736 C517.0619083894362 74.54872669936194, 495.5147356623322 98.82890638236073, 450.2635245718632 152.21412543139508 M542.0346354647395 49.78497594914031 C525.7048522234203 74.57058244298547, 501.37045079205603 99.5829873370654, 450.791496377076 159.58055914246967 M544.1210260827153 50.27832925408502 C512.0271466505847 85.51812521409173, 482.1762232140012 121.69375060401335, 450.44483679493925 158.74820247035666 M549.7703395300767 50.161272551962035 C525.0104519086332 79.77134133926845, 496.7200996122098 109.9668309464753, 448.32971799534675 163.41308727672612 M549.0112305179839 49.76501698057547 C514.2971445375697 91.76677569557538, 476.9557663215978 131.52145512931182, 449.9177957339486 163.39941606689172 M553.1434447450496 51.26283598242317 C525.3177020971549 83.09323286955471, 495.89350126938564 117.99902338271602, 448.99219961748275 168.97691255407534 M553.6448942589664 49.36593413990015 C515.0523063015171 95.2164009766723, 477.89214657396093 140.5807748474716, 449.7260731157972 170.66806832208718 M561.7831681286494 49.27144379747165 C532.2011336072262 82.74461544281654, 503.87916595968574 117.61172202463783, 449.1019425459543 177.78178169185122 M559.7580380656203 50.55632902927382 C523.8719146079446 92.86864589310464, 487.4284809073496 133.01583317038788, 450.4650790765651 176.4465245854794 M563.7028728782112 48.01742946252182 C529.6725207895847 88.98112054640883, 493.4462922061234 130.70302990762136, 451.2574472107751 183.87868412294938 M564.5599129128792 49.6694701829385 C541.4917152358054 77.39733656422031, 516.7076221299066 103.91918666102384, 450.0309005354046 182.1472483058053 M569.096593374928 50.48976893742866 C539.8931489803921 89.38805494296004, 506.23479929471034 127.69881451466001, 450.56934319185973 189.90008487100775 M570.9136317091021 50.02780974868271 C524.9946335232911 101.87204878021345, 480.8548897064584 151.7477002135002, 450.3927168211114 188.24836196005646 M575.2485379228392 51.77485257281659 C545.2459416731505 80.6796744973751, 516.5980112980913 114.64907459773752, 451.97118491042215 195.88618763610617 M574.9881259416732 50.00321524047691 C538.4948250973678 95.69241301045378, 498.5257099748707 139.09715481566124, 449.78260868241824 194.77301467281234 M579.9332214177999 50.01512548607407 C551.6434804769724 85.75125550516574, 522.5116245372914 117.43548994528994, 450.0502319329505 199.35971038855908 M581.0489058725923 50.58621656450057 C536.3507561251073 98.88838262826397, 493.7441061523102 149.63946197107094, 450.12226982099014 200.8961853878939 M586.9614762656656 48.93506343791508 C547.6582416202904 98.46642468173157, 502.9337961767699 142.3105459785243, 449.2671934806051 207.3484702711756 M585.6169107489695 50.41134921298452 C555.131134093708 85.29989712471226, 524.8385686299189 120.8308261481345, 449.4575922399159 206.20779227943993 M592.1270070017425 51.901591478171184 C540.3688200069622 108.2635649198382, 485.6466821077444 169.40339005619822, 448.74782956464713 213.2059985448224 M591.8547765239381 50.79233273470879 C547.0578150996176 101.23405856643946, 502.9195914356836 154.31390121100486, 450.85064134055705 212.57655777983425 M595.0053456521282 49.13625723944662 C556.4721184972061 97.80287637257007, 510.21030657190624 148.5830082662237, 450.4215196728955 220.65542995624156 M597.875702071814 49.552182781511576 C567.22599876918 84.85524242023152, 535.9417536165242 118.81801543330447, 449.17760873514254 219.82906765683694 M602.1354165648521 49.21837796708813 C543.4919522660024 116.87305932358122, 486.39685128997036 185.5679837421907, 449.52520311595975 225.79666061105496 M602.246965751541 50.25863779223835 C567.6938698095774 89.06990730425773, 533.3468152867381 126.6443481748938, 450.8821463001811 224.461638206017 M607.5272142791625 51.5305042020616 C550.9250118050631 115.8223569659707, 488.7187843644315 186.22238698524134, 451.51241506883014 230.38276408061193 M606.9410064021646 49.044505564636594 C553.3552209474384 110.97266236331312, 498.7145676560626 172.87584776995732, 451.6031832001213 229.3508014147325 M612.076892579635 49.4747044492084 C569.9195402553875 101.31752224021969, 524.8531022035851 153.1744754081941, 454.9444536896659 231.32672899387907 M612.688737603153 49.232948601927035 C572.6209839479858 97.51118710096016, 530.8550740804326 146.3875173804826, 456.5464877325149 229.29794651536218 M616.9328391190718 51.316697910352104 C570.1874631722408 104.83841170787703, 521.1203665818858 161.18643496336207, 463.1525107717441 228.08631471451295 M618.7534551530546 49.1155478064046 C588.8514036570015 85.10737061418769, 557.2607800507332 121.72591495203824, 461.39803962994785 230.87042505455406 M623.6705232456908 49.03538421678794 C565.094022853898 115.80790533577726, 505.92946125130743 181.98425563455052, 465.8129607241021 228.13920085510443 M623.7452369471116 49.824256157442875 C572.4144934074802 108.40173291479475, 522.9086798004485 165.02852984475004, 466.06641826023525 230.72056247861946 M628.8371975267049 48.07520249463648 C580.2352114569629 110.96353609884342, 524.5399005975022 167.3576296571431, 471.6857134934038 231.82466963976572 M628.0401093423243 49.26575272623316 C596.3514874915334 88.62875409914969, 562.6226653576814 125.78249734963174, 471.6331819834483 230.68230857238535 M635.8419756232939 49.70128240568415 C572.80891437786 122.10770091035761, 511.6194468634441 194.17638428945284, 476.2598809045773 230.57630569472101 M634.9349779721874 50.317193284784686 C583.2025035234012 108.11512575518329, 531.8446237754623 164.93934995658586, 477.32430248159534 229.14721415332684 M640.271060244368 50.699045118586575 C584.1203852093992 111.93446819604877, 527.8908955475125 175.20343642206527, 483.8181116232152 229.48874762831807 M640.3204546960673 50.553645305453344 C579.7028462281356 117.94379139907858, 519.8281790236382 188.70288540851436, 482.7611164191005 230.0544056867221 M646.1191722694883 49.23221786222586 C588.2044238619973 111.5779897912689, 537.6997391821167 174.59675328882724, 489.9985476793215 229.82634924008357 M643.8858668212143 50.06643812400394 C608.0008429422812 93.7431136432343, 569.4112832492225 137.36476032523848, 487.6106526056589 229.89843284287554 M650.1107646530776 48.60584276543323 C608.8391681469125 96.39360849677782, 569.4654170106004 143.09592533025773, 492.5132927060494 229.6179979220229 M649.3725936664268 49.651638923050086 C594.0304454220112 116.3150459030825, 536.5951721689131 182.61192165334415, 493.99004821683315 229.26913718544833 M655.7454439665281 50.39611859510672 C621.5088571634088 87.91502975986282, 590.9666842636719 123.57410945860389, 498.2940725356196 228.92414734087876 M656.0980759344601 49.88779324477446 C617.8437935209887 94.54158703548207, 581.1766079069438 138.50942405358882, 497.92710746716836 229.56419980273623 M661.4213494893552 48.595686411580374 C631.2412772254294 89.15802265008548, 597.7820776344495 123.41443693355767, 503.1430193821389 231.5191250712646 M660.8109624124924 49.613267761845805 C624.2424525626554 94.33793961817435, 588.6122173638315 136.1666332511513, 503.1201287214736 230.9620199142398 M667.4401736449167 48.226724895782745 C631.3458020421738 88.03206225100092, 601.1215148737783 126.14801144380806, 510.4340119508901 231.23279988755462 M666.157611247518 49.193569720229235 C621.7323748882892 100.88550054880932, 578.8759595229908 150.70696190635476, 509.0975069215035 230.70359108684428 M671.5981009408108 50.52763623152669 C623.3233224282036 109.24346443940024, 571.3390162729646 166.75104596398708, 514.4678325316123 229.88432417191797 M670.1584463966583 50.17873487769866 C626.7882105660238 101.13238641443142, 582.5242437834135 151.7026877970301, 514.3440103831992 229.6252439461684 M675.154706871211 48.4473337242167 C627.0484788365582 103.91936014572893, 582.6217154938817 158.20579536906598, 521.2406187585042 231.14469979141734 M676.8474513652313 49.285684742974404 C613.0935921547551 120.75666022860162, 550.7103382177261 193.69043678341106, 520.6948524450546 230.55881061302767 M682.0904083028071 51.89941266888638 C650.246095138061 85.50180431019913, 616.0315620443278 122.13367036564175, 524.3775793747825 228.88167195753476 M681.9934445611558 49.00160000797397 C641.5791132178307 95.61884586699354, 601.0724593042432 141.81063589871675, 524.310831609766 229.85210607528543 M687.3763430810282 48.33793526413894 C629.8869824761103 117.52549917402466, 573.5001210479819 183.46915464454565, 531.2807591872651 230.03079383511584 M686.4001775651703 50.27524671340382 C631.3366573072377 111.93707955771335, 578.5073763535631 174.2950195112258, 531.3340877556636 230.287271802014 M692.4477240267541 48.3304330267827 C652.7720080438442 95.32048539465558, 617.5564162833889 141.69129282411575, 537.2650827177649 229.44039738258633 M691.8856531999876 50.24631697690305 C640.7242523057361 108.7076258219119, 588.7640213249604 169.8730429822261, 536.8375211145556 230.86829068468663 M699.2207554628014 50.15380180613523 C643.9703912078488 113.75940544700877, 586.2045000750472 174.96949335866464, 541.3657230314411 230.42378442134424 M696.8611019983528 50.324852792655165 C645.445646547041 107.70220775227178, 595.2649557589895 165.97697997823232, 541.5086585743207 229.6690588830959 M701.3622803593665 49.28300228715087 C668.2162386472808 90.8313979981864, 634.6971038399232 131.6651353656077, 546.1201048156346 231.1229435627214 M702.442348722556 50.39539469687309 C659.3607655992105 98.60721390621622, 615.1282778077198 148.99244726335803, 547.3612739873213 230.632917142571 M707.020239589105 50.92277932308008 C660.143584935163 105.14072892124152, 610.5055949532715 162.78148725833347, 551.7406079875811 230.91512695007978 M708.0589879594766 50.546701785548024 C668.5730530411224 95.7345985117492, 627.9141035801333 141.9223221187724, 550.9576959238628 229.1330233483069 M714.4455742583375 48.99989876207908 C653.6600441534592 118.66625336195588, 594.8951984669338 185.7475132214881, 557.28814700197 229.66954086803756 M714.2110230016702 49.82240064149302 C661.4934420694946 109.17994707093013, 610.3217024439374 167.8578853255171, 556.7487239582156 230.67484111148286 M717.741364888299 48.67135756662328 C670.6237905537333 107.11288671612284, 619.2095958487865 167.4735514602032, 561.2492081349156 231.92887156309564 M719.4229645956517 49.226751276989035 C673.7882346704898 103.2139896813741, 626.5468587470307 156.43342151542433, 563.0444396726928 230.21337515145777 M723.2183753126048 49.39336718714969 C675.0106965118455 108.72131743850031, 623.1295111957488 167.83252540786202, 566.2198201565039 229.18005641824865 M723.7293548770995 50.53666621618362 C685.2287452518849 95.12538984179636, 644.9795491045356 141.9457014213732, 567.5582056035266 229.09139218030688 M727.8142916217621 51.16624832476412 C678.4074481214387 107.94072967744121, 630.9658512267024 165.04403565881321, 574.1942657476674 228.1868089088053 M729.8398946662325 50.59681532659301 C693.0358987522054 89.80050516742959, 658.7872588882954 131.26384789368873, 572.0503334081143 230.23399748067388 M733.5038377709894 51.702870363513256 C674.170426999366 119.09393846750605, 612.920728830531 187.0454414335654, 576.5384885208471 231.40120161716575 M735.0990387726334 50.62756249212345 C680.4220985691603 114.31668592677617, 623.8702700130002 179.4181346681479, 578.1974191231722 230.8509817167213 M741.9301172929067 49.07294049152517 C701.3681544124186 94.00684048871476, 661.5294721019935 140.76784396266615, 582.3433534263426 229.46751602462527 M739.3850094251782 49.89078766239809 C678.7591803538685 119.95798084939472, 618.4491014763254 189.99545593574925, 583.992962301144 230.6591402999797 M746.4531065762094 50.44501937979421 C705.7438984145497 92.95798203151446, 668.9073528607023 135.25532197238667, 587.5566885347589 228.07335099446846 M746.3221462608811 50.57784868208922 C711.5494538945302 86.90958233228137, 677.9389745010095 124.01183592107577, 587.9976464892213 229.92017452368515 M750.7569012313129 49.39698795650024 C697.0583198910591 107.174450058812, 646.3946076265753 168.31230726294604, 592.9478752973587 228.99506942508543 M749.3519221938362 51.26718638007948 C706.8684929339777 102.7636652858441, 661.4322405635993 154.10567093891888, 593.4161617410869 229.7789122198258 M749.4745763527753 54.92835855676768 C712.1530772320718 98.75769088493394, 677.675203157753 140.25295634057946, 600.73215416857 231.8710982596668 M749.0319150776005 57.50859958241626 C705.4551325528344 108.54433705590125, 659.9579214050709 159.6912423152995, 600.427108381247 229.88896468051584 M749.3584950038106 61.49899982670345 C720.4890009167862 99.91526199889181, 692.5337827317587 131.53699052812343, 606.5692166014876 228.11695639929243 M749.7850351344492 62.500965664109735 C713.1179634171044 106.17343430387399, 673.8320384635559 148.6797428387197, 604.601978295041 229.2489606896315 M748.735130692966 68.26287191332626 C692.672340627156 133.4713918914232, 641.4119741999414 196.79763552108216, 609.0278271918946 230.62579224299836 M749.5696897070869 69.58294797103656 C714.8313603945327 108.94654997591738, 678.3351430282834 152.1375488038467, 610.7397865382738 230.71871114112173 M749.612032228673 75.13668304041224 C708.2683898617149 122.27894045802, 663.8545749511161 171.8480953137099, 615.1082190177547 228.29666748870858 M750.8424478478502 74.4509111071043 C706.6688547353765 126.58222056052739, 661.4558130699381 175.55719543105758, 616.3277912943996 230.92549505924467 M749.8717817370328 79.48234621833673 C714.539753863048 120.94626956686679, 680.2109324274228 162.52823711589167, 619.0758028886945 228.797726236095 M750.9748637277265 80.28548547753266 C703.5612919424947 134.27167587748107, 657.5314050323212 186.00068033570793, 619.8763467809312 229.99449948000895 M751.4065157333754 85.78390761096216 C700.912518109249 143.10211590242784, 654.2037303015918 199.57592154654887, 626.6338724773528 228.6017627860684 M749.1504253321858 87.31848747677608 C704.224832188227 138.86259103003997, 659.587052080354 192.6364780176166, 625.8239628330311 229.20283825548094 M751.3427485506535 93.66117199200582 C716.5311872963306 134.4664733563588, 681.6835569710212 173.56092626458505, 633.2359995899416 228.60213005905246 M749.9028951747638 92.8200511713658 C721.1861211150479 126.73246108197299, 691.0786139908823 162.15175811248042, 632.2527699957028 230.32056183605215 M749.3090640074865 97.8533974866705 C713.1742440323742 142.19840522404758, 677.1465543394561 184.80664964273114, 636.4682957052233 230.1561567299294 M749.4290131764595 99.25518784160671 C719.0906854014803 133.75084980407675, 689.0540604817659 168.61624091899984, 637.0893723647991 229.3524919548289 M749.3911222527692 106.91486817383573 C726.5665196685245 131.85940085672195, 704.6241589816053 155.2584170256483, 640.2467681702097 231.96302127055333 M749.7714061244777 106.44497819002545 C707.8041115487569 154.44061382637508, 664.6359313537375 203.5530174996256, 641.0100751351761 229.6920230900682 M749.729605274185 112.36272931713671 C724.6303860730449 139.8137100510586, 696.8773899439691 172.49480498877531, 647.3772776349941 229.41323153377772 M749.4197243198481 111.54103762617225 C727.6764915896132 137.50171086482592, 706.1500883323477 161.10594989994797, 646.9816885542031 230.53799355745238 M749.8752027287235 117.51519257844399 C715.1662195201307 155.56177488758556, 680.1338487209165 197.21690488506343, 653.0544825090701 231.64293331460553 M750.8821064500252 117.20671693659904 C720.5573652888132 149.67149401576177, 691.6953221258555 183.9814710228226, 652.5870321063626 229.290417323014 M749.6165651205608 122.90671755983657 C724.7158934344357 156.77692347087958, 695.9068560642035 187.11693738819966, 657.8279116552429 229.1295275128856 M750.5994086240114 123.53382013850876 C718.5419276018828 159.23407482126785, 687.8166925671327 193.54200214106555, 658.3035723112644 230.60234051065598 M748.6135372739585 129.01426530671228 C722.3766174922125 164.71922379864031, 692.836501726957 195.51890680438996, 664.4224819468722 230.36742480815516 M750.3709786522761 130.27697166679266 C725.3496562686431 157.47659071744513, 702.2497426321286 186.07916573025994, 662.931461314537 229.95649274458017 M751.5824400552525 134.609111354874 C729.761360976117 159.03692716549807, 710.7613397796973 179.77551649392024, 669.8858390030059 231.41532549135042 M750.3660426583181 136.24450918054572 C722.1112656956894 169.6688001742944, 691.7865678462514 203.05037483913452, 668.9461793787262 230.40617127923406 M750.4316482062842 143.5551095450825 C723.2440114662005 173.44199520422654, 692.6974757192825 206.9440764132394, 672.4150921379552 228.79281436405438 M749.9203837743339 142.67280935111128 C733.2071137004965 161.5344997323232, 716.4340958760856 179.98863187614157, 673.6232540188116 230.98570625086057 M748.7700548483143 148.57078129604645 C727.2849557995658 177.19526992651535, 702.8772303885335 204.04087665874044, 678.6438242921753 228.774644960992 M750.4826263156467 147.40845885780135 C725.3406654879157 178.5803652114313, 699.3102748680217 207.25325232926036, 678.715756548153 229.14126165236152 M751.172829855469 155.66544440418502 C725.9102842554377 183.29107561512953, 699.8176241216732 211.48540622445228, 683.4674029798007 229.9597272394469 M749.9418362117283 153.58327084250143 C732.8378202652578 175.17964248285492, 715.3363038391743 195.9829134052821, 684.7599291623837 229.114951586618 M748.216982844538 160.53349049154028 C734.4358855242916 180.43854429499297, 718.6387618867277 196.6853205297527, 687.9710838676251 229.70802704444787 M750.0967158258129 161.0990008579215 C736.148333548056 175.32855654949486, 722.021486383305 190.8316470777725, 690.4072653539046 230.10999211382472 M750.5365389749467 168.51723741801518 C735.6835572666339 180.1813492267291, 726.2957849560623 195.66287749061553, 693.4529449672627 228.72575075943965 M750.4571297920706 166.50771808867952 C733.0291626515678 186.30950872785422, 716.6862429607935 206.35772351529894, 695.5047919518611 230.11604407111707 M749.3273138390362 173.70427753457668 C736.3761702202747 186.96979374923575, 726.6402765783916 198.66423976554444, 698.5991574940066 229.70905038697688 M750.9561756428577 171.8845278717583 C737.9037968833314 186.36602767284572, 726.4336647207325 199.2084493561958, 700.2682842580441 230.64270495590068 M751.1290577479228 177.40492961071917 C737.8592664794089 192.17612131379173, 725.1831256706623 210.39929191042222, 706.8722305855615 229.28946894278832 M750.2603394565513 178.61320836002213 C737.0482286852182 193.23219630140008, 724.0763561821097 206.9481492964827, 704.7423712074327 230.59288520334118 M748.6072288771295 185.40437962256667 C737.4428521776458 200.037837198649, 725.327690208005 213.65070128588383, 712.1622324905981 229.7027504753701 M749.229077477346 184.82101204980208 C736.1968518047294 199.48584130224967, 723.3229270661905 215.25690958707816, 710.2140719051785 229.59466165417697 M750.8467288515934 189.54285248043132 C736.0199218429871 205.8072680435352, 723.8326519263745 222.85890813766486, 717.4427651636556 228.5819392567021 M749.6810728693275 190.56388833396417 C736.7924019685164 204.84805382877317, 724.8883646636892 218.3894042457791, 715.1405902324634 230.95110490633013 M749.3591024856273 197.73003432663793 C739.6886077072845 207.48788975373859, 731.4275548867045 219.42753107105307, 721.6716839910715 231.29875607833017 M749.9490312909211 197.51486591933482 C740.085553754039 208.19892911601187, 728.9115258204887 220.7255193386698, 720.9746709435638 230.31576550975376 M748.791415539988 204.90698841382195 C743.0113651877256 211.70059838157144, 737.5593936674471 218.75752340668137, 726.1708487059641 230.7031826489363 M750.148485979799 202.70092891929752 C745.6710374038622 209.5639624384091, 739.0752477399762 215.0324264195806, 725.8833160267857 230.57262787238344 M749.4229940267984 209.89153590492734 C743.0327916204902 214.94671323196994, 736.9464979215448 222.65538931220118, 732.0482263019271 230.92778820755782 M749.080585345025 210.05625343772454 C746.3872340969228 213.75646279051307, 741.1125291385309 218.2196168667746, 731.467079587751 230.87557408386064 M750.6093354346967 213.44569726857506 C748.1804540599355 219.0284510924374, 742.9714080146607 221.53469550920792, 738.235249911709 228.6218184970938 M750.01763649804 215.28159083154327 C746.9067916171759 218.9309926769863, 742.342527739536 223.11674354182938, 736.536247520995 229.57537580745435 M750.9270103795391 220.76169751495195 C747.7621604152778 224.13021013594275, 743.4238729423761 227.88087963180922, 742.8670151807593 229.77948305935757 M749.4611531228945 221.79839962111143 C748.1209811256306 223.35082359195067, 746.0436614571578 225.43102451191928, 742.8894706816916 229.4789866908411 M749.7974511558872 227.67049401892817 C749.6452869430296 228.1687252763111, 748.9597581085837 228.74429137871164, 747.9902972258826 229.7048442837199 M750.1521646653136 227.57184855705532 C749.363151648014 228.37182941197617, 748.3846500811525 229.35337402923332, 747.9828321036142 230.00687788133112" style="stroke: yellow; stroke-width: 0.5; fill: none;"></path><path d="M451.5802558964194 50.76533859993512 C529.5332880362344 50.44227123648515, 604.1775136335166 48.944526869903434, 750.2567888929398 51.391280952071824 M449.06240661225473 50.977791749644624 C562.4339416214752 48.49130504347666, 676.0554272478402 48.03086646854993, 749.0777457607902 50.5471843612232 M750.4978917331243 50.79125816899467 C751.2118690817161 104.05230726707642, 750.165666713221 158.27513463269312, 751.9883883918279 230.97192226711454 M749.8277669113148 49.67845911665611 C750.7555576025761 94.13658843930814, 750.0427882275116 138.1092312725073, 749.453232786441 229.4138859887706 M750.6840260502348 228.4152485904925 C640.9178818163631 233.34737474402985, 531.9166286906255 232.93116738653, 451.91422723821296 230.75285976045103 M750.1403445322508 230.43624305957138 C639.5911142819234 232.5677519392804, 530.9232440236979 231.8635713299567, 449.65321732660504 230.37118524716215 M449.33155321045143 228.473215606389 C450.13903584687625 179.3911072139906, 452.1592466464679 127.30665011725995, 449.315665990068 49.04694578640398 M450.62773561108 229.50063493063797 C448.49755446731206 176.4669713618367, 449.6122942117953 124.00401915279903, 449.5732134052694 49.52982269738953" style="stroke: navy; stroke-width: 1; fill: none;"></path></g><g><path d="M579.1728659924247 311.8488790893681 C573.6173135446031 319.5419610941602, 569.5490979678711 329.15946681111353, 554.590347850457 341.2358633221282 M579.9632528885696 314.34855749211965 C572.6015336285564 322.35112833550073, 565.6677315129223 329.423758054976, 554.3916041407224 342.7828083041301 M588.8718202246808 309.9483448925521 C580.0723410879837 318.3119985247617, 573.9853384385542 327.81619625103673, 552.1667723486433 349.9068834662794 M587.5128367817422 310.8347173905906 C574.2292911928506 327.7911512748204, 560.5125539396373 342.9121839696959, 553.5099913093882 351.5158984767893 M595.1837168324639 311.08545097796735 C583.2717294946248 324.4999578435945, 568.528401858997 341.07950266397177, 553.3007308862732 358.81151134225814 M595.2611345121895 309.62554767841937 C582.7949674998916 321.61528681501056, 573.2303764079437 335.7690082483843, 552.6070313396516 358.23046314388483 M598.4222568978512 307.80637885440177 C585.1498899983136 328.1518082737352, 568.7058285662846 342.7156466614775, 554.308682951381 363.82375660378756 M601.0012607238899 310.24976537693306 C588.6293111208015 323.16477740709223, 576.1164496021682 336.760429642475, 552.2774194390956 363.9655414709462 M603.6203431170541 307.79929366359187 C593.0102653217773 323.02789601754205, 582.2270042588575 336.5558587273538, 553.1926795624408 369.0452383467418 M604.3452895393095 309.25775901783135 C593.9721215599907 324.82145605956794, 580.2477675669907 337.599973416656, 553.966702223314 368.81644979172796 M611.6205722638009 308.7436479225205 C592.0948313455327 327.2125959094878, 577.6407271127471 347.98691016308464, 552.7473137586237 373.82617059237094 M610.7690766293247 309.6335764015012 C587.5811985847258 334.3381566771361, 566.9522469031803 359.70182914050827, 553.597163218406 374.9403579073721 M613.1723548987708 312.99097826175387 C597.9891506835411 331.9841347688237, 577.2317212781381 352.4760732958398, 555.4601782823974 379.96976163144177 M613.7505651449368 311.61513783143516 C596.1038472704988 333.102143921762, 578.2422633027564 352.26855553181116, 555.5641834405043 378.53978904793513 M618.8975745193437 313.5450889696126 C594.2324126547054 342.5916717068211, 570.0650170275014 368.2381842164562, 556.0937528389968 383.37028721257013 M618.6533837130287 313.67959092609357 C599.0459681673605 333.80042962949005, 581.8125660043105 353.72934299675524, 558.2501337051297 382.0248569332957 M619.937358736442 315.84441250539334 C598.6348129855096 344.69134998058024, 573.040929367407 370.48773318539867, 559.5906280349446 388.0312871431301 M622.5333385829479 315.77969149368954 C608.624283586582 331.18902071585916, 592.8140047261542 349.4651201591252, 560.0642348988243 385.8204421089748 M624.8172566629247 317.36794453338393 C607.1922511519022 337.0854840119799, 590.0141090042179 359.71101428855303, 560.9833329643468 391.2174089776776 M625.4462865555987 317.5601502436639 C611.6027987150043 333.53434252961347, 595.4854585439706 350.93264772954757, 561.5746674923432 390.163304022672 M630.4609176947114 319.8280365145193 C604.0762943315768 346.80624676087, 577.30719754667 376.4468858585873, 565.754930299152 394.17300408856477 M629.2141272116883 320.30624162266895 C613.8253890513139 338.1580147246759, 597.9263284048097 355.06909669085775, 564.3167949648291 393.47074090658515 M632.0164210578934 323.4991796206056 C619.6237925546855 337.1346178736143, 605.4102504337344 354.78670212030596, 565.55001784851 396.4484565149712 M632.0352349167176 321.642123344694 C613.4692444571258 343.25812964218943, 596.2646907687225 362.31068204584375, 567.1985823628014 396.4983698728758 M633.9082533893356 324.46203339432014 C614.811787809266 347.02211588467947, 592.8210857461901 371.347419448344, 571.1496157244034 399.5217866976117 M634.3567919090787 325.31067543760815 C618.3239292050713 342.74562332032485, 602.7302508150627 361.29862343353193, 570.4185684115602 398.4990276843814 M637.3383813173181 327.69403928094505 C612.2615181568772 356.35307514737724, 587.4942770551022 387.9314671151239, 571.4903206823031 402.899477816179 M636.9580414665539 327.5105893629767 C614.4256067924762 353.1368507082967, 593.746594377389 378.4939603633836, 573.8341408908082 401.5579331868887 M638.0980650180529 331.2917318600838 C623.819214257455 348.7375392073106, 608.9791676531345 366.4575997087703, 577.6963828058488 405.91681009860446 M639.8938731433246 330.9950757064006 C616.6661261174299 356.5973957452742, 593.0104971835391 383.7665263468841, 576.8874552205307 403.7232061361084 M641.1189735098916 334.78000963319545 C617.2010525640646 364.7274123034918, 593.3726623178153 393.0766958323601, 580.9828172150293 407.57570325571777 M641.1232618996656 335.4259336217281 C626.7615078874039 354.4530306535715, 611.1247822685442 372.03336705704686, 579.8723076714192 405.5151557691625 M642.4446670945125 337.3860616518423 C622.874883070102 362.2503480204865, 603.6604662119319 387.40275982797226, 585.1034364105429 409.0794659120141 M643.3711392226073 338.58675156741515 C628.1883845425001 357.71725298771463, 611.717148527173 376.5779660566131, 582.6980973062322 406.95205060623323 M645.9402746079069 344.04792724768475 C634.4870473235599 358.09614925610583, 621.4177354105178 369.2053779209471, 588.4614088719364 409.8554043305118 M646.0440280107637 343.01807488904416 C624.096175450648 366.4258854742492, 605.6095876791144 387.7095080379796, 587.9486558065854 408.9611496023868 M645.857309563949 349.53803831690436 C630.253834646905 366.71992911689784, 612.2594697977818 389.3433566430192, 593.4392432621227 410.67595181471154 M645.6892089305637 348.3800431690782 C632.0801725621521 364.1002302403095, 615.9010612226738 382.70788287689237, 592.479234800355 409.80944698231525 M645.7153951820434 351.98268766824464 C630.1189421406494 371.3990666411491, 612.7086735782102 391.30591527776784, 597.5495506934324 408.9226297131225 M647.7786553206021 353.29212577181625 C627.4592826675713 375.16622284146234, 606.2762599449576 398.40910370617877, 596.9967304677922 410.1203267183098 M646.7247269866518 359.5415389090564 C632.6821910593562 372.70839639142264, 620.9188911285735 389.0461692832607, 602.0183482331754 409.94664138824743 M648.5770131108284 359.23796288066745 C635.9049587629296 370.6804593473015, 627.0229820606905 382.26485011441713, 603.0514368772143 410.87669555114377 M648.215511021023 364.08083226448025 C636.292327935395 378.1320452231482, 625.8822517551489 390.24905799967684, 609.0550931157476 409.0948378095828 M647.6214191371371 365.00927749952933 C638.4685081516841 373.67369496608546, 631.567209522281 384.16226385489324, 608.9846067338794 410.3212765209051 M647.7938845708171 373.1712884246398 C636.4695183541378 385.5679008073984, 623.7928840798729 396.19637829673775, 616.9780304790204 408.3291163377798 M646.0578555283381 372.93557761337115 C634.5946270244149 385.4345491540972, 623.234078779396 397.9371825540547, 615.153962844533 407.18401932280295 M644.4950590065512 383.2185617581112 C635.869274686711 389.81233296019707, 629.7232220681025 393.9770474472411, 624.8759657425896 405.53421577274474 M644.0121888726268 382.4630340837263 C639.6403590687729 387.5505854428048, 633.8883574261162 391.528513161221, 624.5138334763534 404.0782833137417" style="stroke: red; stroke-width: 0.5; fill: none;"></path><path d="M598.3735773538457 308.2301480726309 C608.2476882400298 307.40745060829244, 622.7209304267218 312.56325770532465, 630.96774449485 319.5413846497628 C639.2145585629781 326.51951159420094, 645.8217993950657 339.20255261672787, 647.854461762615 350.0989097392596 C649.8871241301642 360.9952668617914, 648.2433807697507 375.14990451634003, 643.1637187001455 384.9195273849532 C638.0840566305403 394.68915025356637, 627.3770926594655 404.6754714475554, 617.3764893449835 408.71664695093847 C607.3758860305015 412.7578224543215, 593.2063214294316 413.0274164522518, 583.1600988132535 409.16658040525147 C573.1138761970755 405.3057443582511, 562.5595396310006 395.14918985721, 557.0991536479152 385.55163066893635 C551.6387676648297 375.9540714806627, 548.6891300701753 362.3116224814308, 550.3977829147412 351.58122527560977 C552.1064357593071 340.85082806978875, 558.6987447910724 328.453362288005, 567.3510707153108 321.1692474340102 C576.0033966395492 313.88513258001535, 595.9745098463035 309.87432671286285, 602.3117384601717 307.87653615164095 C608.6489670740399 305.87874559041904, 605.3585757345847 308.3668258656216, 605.3744423985198 309.1825040666787 M620.4318496068373 313.4879437211531 C630.1027805949496 317.3517787365366, 641.5761403574705 327.641820414601, 646.0946109747008 337.47503418033807 C650.6130815919311 347.30824794607514, 650.3145207470064 361.5918360707742, 647.5426733102191 372.4872263155754 C644.7708258734318 383.3826165603766, 638.2361301081065 396.2416034789696, 629.4635263539772 402.8473756491452 C620.6909225998478 409.4531478193208, 605.8966576426496 412.95342110566105, 594.907050785443 412.1218593366291 C583.9174439282363 411.2902975675971, 571.1429742134899 405.89214905917095, 563.5258852107366 397.85800503495335 C555.9087962079834 389.82386101073575, 549.929191640035 375.0374961322026, 549.2045167689234 363.91699519132356 C548.4798418978119 352.79649425044454, 552.9322525300031 340.0708682736698, 559.1778359840672 331.13499938967914 C565.4234194381313 322.19913050568846, 576.5415833704267 313.2358252120716, 586.678017493308 310.30178188737943 C596.8144516161892 307.3677385626873, 614.2150878369623 312.6868663534208, 619.9964407213545 313.5307394415264 C625.7777936057466 314.37461252963203, 621.7013969036082 314.43529651686305, 621.3661347996612 315.3650204160132" style="stroke: blue; stroke-width: 1; fill: none;"></path></g><g><path d="M197.23118877139223 721.8396699281997 C190.27229548750265 727.5313534142574, 180.04219709048033 736.795289829675, 174.24185179896523 745.6706636916027 M196.0716987467069 721.2576157020544 C190.3943908029519 728.6907911077978, 182.8720618212829 734.2489508745285, 171.8592153166953 747.4049113748399 M203.99637118840457 717.2261512380376 C197.19592566313779 724.3656799935277, 190.87373341528425 731.4901158385595, 173.26446204360667 754.7111870036051 M204.7654439405938 715.2048810669353 C198.03630357229287 723.8390810754491, 191.05543828236077 731.4886996051176, 171.95963737104015 752.5848736574567 M214.4131340526326 710.6345562638436 C203.1716997987966 725.0248704411714, 193.94143799116623 739.414445493028, 174.96289847710642 756.8592783912924 M213.3757543319042 713.336518963319 C197.3605650037473 729.356188143337, 181.94762769124014 748.1878472388045, 174.7264885466143 758.0702547917685 M220.19796197856968 710.6785626838415 C211.52698972545824 721.2854263965925, 199.26506664447757 735.4424472301034, 177.71280851599914 761.5754500775117 M221.53428208919723 709.1261472378656 C204.9942940365432 729.2684764782608, 187.66959680334915 747.074146746648, 175.4202143453649 760.8908099468304 M226.44040592103838 708.0852339826604 C210.1696440013123 726.359179515154, 191.48100222514907 747.2049225222328, 179.86087913999836 764.0536528892791 M227.6730832929211 707.5274713766983 C216.04713900347465 722.783041565252, 202.2501387181336 738.698789737304, 177.98454040010608 764.8564903903966 M235.4222397957618 706.7965938089886 C217.54392591875023 727.0612521920247, 195.4428514879525 747.7907471490238, 182.24108162464378 766.9487397236887 M234.13328904825858 707.112653980974 C218.45521326272453 726.6444982244874, 201.28861013437532 744.7802235367933, 181.47059185140745 768.3775019023348 M239.85568555496283 705.1391091874293 C224.90855653860731 723.6360354594599, 210.8686030681491 739.5731612146878, 182.10032885187482 771.9263949018316 M241.30183272277327 703.9580786881161 C220.82921985548668 727.8623625820364, 201.27867354734371 750.2894480193171, 184.4762339908382 770.2794283350509 M246.01070420454838 704.0705868464921 C230.7932744749681 722.083964675915, 216.74059256437582 741.2076420647484, 187.80928152923232 774.4250187623728 M247.76744867336402 703.1798092108262 C230.17039329117685 722.2412226640649, 214.45910647566228 743.5568355773361, 187.0608864972045 772.6442108983152 M253.72188041144298 701.9364631593078 C238.93830003037573 719.0044389720666, 224.68297881012927 736.8841806935786, 190.06702613776042 776.76407213065 M254.88905772533226 702.8873532861185 C234.84658554481794 723.9599140877668, 215.40520710624384 747.198443263333, 190.40562934915687 775.2242670939518 M259.9176669555625 699.623293838049 C243.03267687866213 720.8276115006101, 226.05095173742632 739.8609986444953, 193.99917558196907 776.780947127053 M260.735618616347 702.1005303021083 C245.54185781679624 718.6033986586815, 233.56178945443358 734.2661161373662, 193.46989617827057 777.121703107169 M264.8887221938713 700.9285543462231 C247.67487549067314 725.3840189396385, 227.04546562694097 746.8464613835165, 196.72092679749724 778.153536365355 M266.84831168991434 700.0844516361926 C251.7698526806521 718.1516208876466, 237.51106983150703 734.4224104138844, 196.57148945566306 780.000965953611 M272.26265277747837 699.6155099162821 C246.45900126824668 727.0321587746616, 223.85178675307517 758.5731600722396, 202.7181303934178 783.5099454258262 M272.5896322659452 700.3730081777547 C243.73159987081414 733.9119356159155, 215.37699806527462 766.628141637167, 200.9822155649639 782.7662356890781 M279.01378367398456 698.9755527923134 C258.64128593352143 720.4225087816741, 242.82726810583833 736.5811517303908, 204.23327193189286 782.5944573452874 M277.3707761318298 700.5136453137897 C254.1364758533675 726.7791957076702, 231.83203481900742 752.761206983304, 204.89113939819012 783.8313854045825 M281.3351949416954 700.4104426779522 C252.69664274535464 733.8867704831029, 226.4509327003145 765.3214132110743, 208.14879543357222 784.6580183990058 M282.4475930353632 700.4183182024578 C256.1776240029227 731.2102830603527, 228.59792117366797 763.9501384137636, 208.39015468937902 786.3693700748659 M287.1145732622088 698.8704496120146 C258.41114191709755 733.5817123227848, 227.2946438435898 766.6530899592541, 211.53012699715805 785.8108383833747 M288.2915250925623 698.3463036622045 C266.6187146545466 724.4252781578226, 243.95519959507112 749.4839063051014, 212.9715625797841 787.9826903389746 M294.8135251245622 700.8619083682473 C278.03905309947777 716.024705966766, 261.84572523516044 735.7667688104787, 217.97943226488349 789.1532899868118 M293.2145726712353 698.8443785998151 C268.1352433607087 728.099791835747, 240.72024969332494 759.4417619357755, 216.981087674364 789.0701779931724 M300.2350311209176 699.4818190683455 C276.42613216425156 721.6598262607647, 257.4083110624614 746.2502340310554, 222.34789629201757 791.8163105715304 M298.58528365561915 699.263694447793 C280.5454082027533 720.9325927182971, 261.49631661038603 741.6609393483976, 220.04748594881048 789.5727441609098 M305.67964515685355 698.0850918765411 C283.1206861900371 722.8120756528556, 262.53913319992597 743.4597362038958, 225.0615730234244 791.0315156614488 M304.51304812726175 699.6311980505994 C282.5575500448259 723.9694124802877, 262.33038466174827 748.8712981903632, 224.53652420301924 792.1119402513623 M308.6824351753653 700.9928012379028 C283.16728969526423 731.5169182643746, 254.31550721025647 761.5357682907711, 228.62891012211477 792.6453697920276 M310.70905952193 699.703684244849 C281.61592878119234 732.5395329099334, 253.04897312664752 765.9960731642111, 229.76594752920462 793.2289639833524 M316.10206564686416 699.8535961203866 C295.4606293746815 722.2208719418919, 279.7856971484885 740.189635003234, 232.30182453965782 791.5740368303129 M315.0114753283409 700.0486177296522 C298.1663735844176 719.9291761447003, 279.69787515394853 740.300500289182, 233.49226072526795 793.8260216399002 M319.62653461856735 699.6654178462708 C293.8928042630109 731.8938923150474, 265.9457278669336 762.8808599774125, 236.91115704753108 793.0621036039925 M319.2432577671057 699.8800743320946 C296.2593967389711 727.769520805159, 271.45820705987046 753.9474218293408, 238.65417876988505 794.2669325110787 M325.81023040268025 698.4525672775522 C303.020736817931 724.8608917393727, 282.1534682907357 749.697144354356, 241.64718968038696 794.0799282843989 M324.5605045696549 699.6996456324499 C293.54057826114337 734.8581104509277, 262.59786155168933 771.0662352467614, 241.67137558388706 796.0564284174196 M330.6607538547432 700.2348017056493 C307.9536740766752 724.856023875577, 287.1085118917899 751.0045871994068, 245.84826533315135 796.4122879608377 M329.33921310075135 701.042017477523 C299.3604575029183 733.7551005111534, 270.94388942196707 768.8675582836411, 246.47921406666458 795.336600574759 M336.59031071418167 702.4382162308515 C311.0804534056124 728.585804377932, 286.92390341757334 758.4093916339334, 252.12540356531542 799.038036571345 M334.71399191564706 700.8603259869278 C307.93207355692294 732.964383156946, 280.10028964629254 763.2351378823483, 251.96076999038957 797.07339483301 M338.7553836532847 700.6341652617842 C310.30666283373 732.6453767502148, 284.5169756406568 765.3642612017851, 256.82187616798416 798.8942799492071 M339.52160019339874 701.9886487578775 C312.9147208882521 734.1888361609319, 283.2427722188082 766.7047603888147, 256.49900774298806 797.2517378152615 M343.80856074572074 703.8853268733374 C323.40921253986346 723.383376169833, 304.22510258849763 750.6986114555178, 262.61502840339034 799.1199260826535 M344.52866671129465 702.4359296532258 C323.2983855785001 727.3437162523039, 301.50375522632373 751.6223294877512, 259.97578037131524 797.891391963085 M349.11623148648715 701.891131812721 C323.9696583344942 726.1220992257156, 303.5180224957955 751.6973095039426, 266.2957796151319 799.5296492109986 M349.7425943040112 702.3934522247375 C316.65239228746105 738.567913853874, 285.9592311535297 775.9610107811394, 266.0476551113749 798.8856779094988 M352.77585534455244 705.6684544497909 C331.0465783546765 729.5764172006691, 306.3547387732456 759.437838959677, 272.0988991437171 799.262796718966 M354.3045306872965 704.1576123068227 C327.3198537831809 734.631929611818, 300.264230251216 766.0921059032984, 270.40487780688045 798.5841710657587 M356.3179049927544 705.3902027990861 C325.05230172931283 742.1754941201787, 293.9158464203678 777.7902245774958, 274.16424837983215 798.7792608790602 M358.9176372718235 704.0973215226934 C332.38578984146005 736.0939626536509, 306.1100564298247 765.6837922171054, 275.38071273603276 800.4662085420194 M362.28567237408083 706.3971479065706 C342.383820615965 729.8148190093102, 324.62446116219274 752.5182523537815, 280.83551954072976 802.2138879380168 M362.53739725307213 705.0357308314617 C332.1126235859761 741.0169373499609, 300.39793610403973 777.1739010278789, 279.258360452477 800.8410586941204 M367.5209126183794 707.1292851257958 C345.77992702172617 732.5596430968109, 324.68295716171633 754.6581933788907, 284.225880499379 799.449241085552 M366.09636890329796 706.5557418472565 C347.2963267466984 728.7647702199151, 327.3034650825645 751.0855474866337, 284.33503588546984 799.9314257432903 M372.8422546864479 708.0455559244659 C343.4252278276498 742.0695909465105, 316.0114984104317 771.1133127140323, 289.23743581876454 802.6622231003316 M371.15170511704764 708.5431548472097 C340.24558812311477 742.9010590885466, 308.8358809558993 779.2451626152387, 290.12495960626177 801.2925940641289 M376.13293128539584 707.3963515469185 C353.7521778970677 733.6720733982859, 333.0377039463127 757.4912085597874, 294.12811726933916 799.3218428804256 M376.4161333119465 709.2028498346621 C351.6248693883122 735.6301799855939, 329.01905405146516 763.8650401818934, 296.34593017386385 800.05140148757 M380.47340125901115 709.6344577059715 C352.8370288460034 741.0731843830408, 323.3610510349878 776.8699190183954, 299.94081455927454 800.8050581805379 M379.9882506833681 710.7423071305849 C351.7321204838723 741.4742651450607, 325.6406905657945 773.6323325971553, 301.3207416450261 800.9339017650482 M385.2313414100096 711.8936825524231 C355.5818377277925 742.8047035780705, 330.1874085361642 771.5849832443226, 305.10714200303846 799.388992404544 M384.3216521277796 711.1749024461408 C364.59677681746473 735.0236201929825, 344.7097733977803 756.5670283297359, 305.89878808822976 801.7739284365448 M388.60963368160697 713.9590522866819 C359.05310671431124 745.7301004614694, 331.75681864558044 777.8572180198332, 310.81146427039243 798.8937670060793 M388.6088264532818 713.9786028187776 C360.78402782763914 744.323225493193, 332.8557850608971 776.4600525509746, 311.1308951521683 801.1421995933285 M390.21327747012447 716.0999057300087 C376.2991115623645 734.248207401441, 359.0078445385576 754.5639231726681, 318.3375545146347 799.677114610167 M391.81179711564334 714.7097384894288 C364.0292223218964 745.4365079382817, 337.113793110011 777.9790292680783, 317.90707634567656 799.7731633604437 M397.54707484125464 717.3396642581221 C368.26353164243426 750.8483110237252, 339.22622569766537 784.45371485849, 322.47504114575355 799.7714330358925 M396.65931500725316 716.0404115198031 C368.0390928034302 746.8613392287162, 339.8347729136792 780.2719358691533, 323.64451210099594 800.0825992658428 M397.7336052784906 718.4569916900206 C385.011960308015 735.670926831978, 370.1175733105664 751.7454423958051, 330.2693746611402 800.7615959264722 M399.1963142767922 718.5686877236485 C382.6394962264707 738.5745882814392, 364.9284113571273 760.1771137336207, 328.76084232555655 798.9097055979496 M401.4359865636617 718.1525094968854 C381.1148850059524 747.30048715549, 360.5898233079369 769.2178830450605, 334.2676812840663 798.7265321539046 M403.1789528011536 719.5124900506875 C381.0911258057805 745.2389490599076, 359.37339977208666 770.4281005021344, 334.422730974835 799.9168162433238 M407.35226127259386 721.8489189459275 C391.2163046457702 739.2150531079085, 375.86832809973765 756.8934958831069, 339.50087495720516 796.8967355088253 M407.30677483931663 721.2076127775214 C383.9989616070055 747.6145995008486, 362.7329219654911 774.3882108194523, 340.032702410213 798.2432554606945 M410.22551013099394 722.2701914396304 C391.9247888858915 747.9465675557261, 372.9261488453218 767.5211075895493, 347.91644083781785 795.516150023889 M410.60975510995365 724.4105815313479 C394.7527386731688 741.3010383042234, 379.9641665932007 759.5792247471737, 346.53625812723106 797.0605790010017 M411.8941777279852 728.4783781763517 C389.4128798668407 753.6628982000965, 365.7712777767098 779.7622957785113, 351.4129900144967 798.2800375874637 M413.3895077545185 726.2423894455827 C395.29591912491276 746.3626092248328, 378.10041891067294 767.1569116023028, 353.51850864350985 796.8738422655571 M415.1060445775168 727.186613991685 C402.8119355035258 743.5163947919378, 391.2506741492006 758.7602173851126, 360.7505385915028 794.0699081881354 M416.6487012363104 728.7810890910044 C398.39433919794897 748.2566541315372, 382.63281983460405 767.9099413504115, 358.5860043168934 795.2380563529385 M418.49071328403187 730.6912517741837 C403.932731743732 749.3923994314775, 390.06867074395734 764.1048093680321, 366.8756856950807 795.5070384582725 M419.9745813118632 732.7049360395382 C406.9017207960034 746.4298141438596, 395.30609182526155 760.5155560354946, 365.707911834233 793.408119222665 M422.16922771143396 734.8151226683926 C411.29631532827875 748.5726858048137, 400.40845446683596 760.7287703111685, 372.2799150844395 790.6557440211483 M421.22951559483374 735.4854084346636 C411.543429678652 748.2234613230206, 399.71531635027463 761.8158181015393, 372.9145288255838 791.7684052699495 M425.4042546986016 738.0980427289771 C410.1653882910599 753.852381859448, 396.44793710831476 771.9342657904084, 379.0900972151611 789.9416979103469 M424.5678872486809 738.8527044332538 C412.2648398927572 753.336687544854, 398.0330155294692 767.0224268330755, 379.25124836005773 789.6594626903423 M428.0305437372483 742.9890171041603 C414.5794256381677 755.2720277877096, 407.73018481176956 764.8098122399516, 387.7277613389939 789.1676612782296 M425.1996065289584 742.6876107333349 C413.5397370474127 756.6864806179867, 399.7308806717511 771.5548922198932, 386.8201593014446 787.353161093719 M426.92573943274243 746.9092367542046 C416.0865958508623 760.2645248155442, 405.81886361402996 771.3531404790396, 395.247562442014 782.2593564358901 M427.8683282931049 746.221162168744 C420.79275317746675 755.4266508962135, 414.7439647217824 762.2085107725987, 394.38581674186435 784.0246571609831 M426.1917338496328 751.3405268220594 C420.5747018046714 761.7087013120373, 413.6796818998567 768.4934959330408, 403.2747230498101 779.944360627404 M427.84390389707926 753.8058906110658 C419.5711796369959 762.8688857807565, 411.4976237986875 771.260814822903, 405.4628622392755 778.6279911566326" style="stroke: none; stroke-width: 0.5; fill: none;"></path><path d="M348.75731562123076 706.470589372494 C372.52011295989166 709.6051986619033, 398.7656959246769 718.7458760916777, 410.61873123717413 727.786203459759 C422.4717665496714 736.8265308278403, 426.03911868305636 750.6817009631083, 419.8755274962143 760.7125535809819 C413.7119363093723 770.7434061988555, 394.5662737682657 781.6202902493807, 373.63718411612183 787.9713191670006 C352.70809446397794 794.3223480846206, 320.7051363588267 799.1407980178697, 294.30098958335094 798.8187270867018 C267.8968428078752 798.4966561555339, 234.78851698673967 793.1063928628311, 215.21230346326743 786.0388935799931 C195.6360899397952 778.9713942971551, 179.8071502647392 766.8925336097278, 176.8437084425176 756.413731389674 C173.880266620296 745.9349291696202, 183.01672270247056 732.0089863397548, 197.43165252993782 723.16608025967 C211.84658235740508 714.3231741795853, 233.6411967983136 705.129790230235, 263.33328740732117 703.356294909166 C293.0253780163288 701.5827995880969, 353.53534997367643 709.6758599271946, 375.5841961839833 712.5251083332555 C397.63304239429016 715.3743567393165, 397.02793992312195 719.7661792841374, 395.62636466916234 720.4517853455314 M358.0828638146489 708.2167408536128 C380.92614693128223 712.4606687963116, 405.13481293167376 723.7574507522659, 414.88802901196215 732.9628961007071 C424.64124509225053 742.1683414491483, 424.91157472678293 753.6441036479121, 416.602160296379 763.4494129442598 C408.29274586597506 773.2547222406076, 387.4365107181384 786.0222528914442, 365.03154242953866 791.7947518787935 C342.62657414093894 797.5672508661428, 308.0628176850206 799.8295864281647, 282.17235056478074 798.0844068683554 C256.2818834445409 796.339227308546, 227.17783198379018 789.0664949959528, 209.68873970809932 781.3236745199373 C192.19964743240845 773.5808540439218, 178.24393336239956 762.0250580067398, 177.2377969106355 751.6274840122627 C176.23166045887143 741.2299100177856, 187.4348460049359 727.2132197915328, 203.65192099751488 718.9382305530747 C219.86899599009385 710.6632413146167, 248.94815008987067 703.835506856152, 274.54024686610927 701.9775485815145 C300.13234364234785 700.119590306877, 343.31136511726015 706.4945277196044, 357.20450165494645 707.7904809052494 C371.09763819263276 709.0864340908944, 358.82874083130093 709.1897757289073, 357.89906609222714 709.7532676953846" style="stroke: blue; stroke-width: 1; fill: none;"></path></g><g><path d="M429.53919490123667 798.5684854987888 C431.3792596417402 547.4282683997884, 429.71615389626913 296.9661515471424, 430.76543054548273 98.39177294963933 M430.93133086761145 800.1818132759956 C436.706360420212 546.5936858425626, 436.6554985127868 292.98181532473177, 430.83372163198015 99.571169541967" style="stroke: green; stroke-width: 1; fill: none;"></path></g><text x="500" y="150" font-family="Verdana" font-size="55" fill="blue">Hello,
    </text><polygon></polygon></svg>
